<?xml version="1.0" encoding="UTF-8"?>
<!DOCTYPE svg PUBLIC "-//W3C//DTD SVG 1.1//EN" "http://www.w3.org/Graphics/SVG/1.1/DTD/svg11.dtd">
<svg xmlns="http://www.w3.org/2000/svg" version="1.1" width="128px" height="128px" style="shape-rendering:geometricPrecision; text-rendering:geometricPrecision; image-rendering:optimizeQuality; fill-rule:evenodd; clip-rule:evenodd" xmlns:xlink="http://www.w3.org/1999/xlink">
<g><path style="opacity:0.849" fill="#fefffe" d="M 24.5,1.5 C 42.1605,-1.14082 52.4938,6.19251 55.5,23.5C 61.5,23.5 67.5,23.5 73.5,23.5C 73.3345,19.4862 73.5012,15.4862 74,11.5C 74.5,11 75,10.5 75.5,10C 82.5236,9.83108 89.5236,9.33108 96.5,8.5C 98.2877,6.4235 99.9544,4.25683 101.5,2C 108.833,1.33333 116.167,1.33333 123.5,2C 124,2.5 124.5,3 125,3.5C 125.667,16.8333 125.667,30.1667 125,43.5C 124.5,44 124,44.5 123.5,45C 116.174,45.4997 108.841,45.6663 101.5,45.5C 101.5,54.8333 101.5,64.1667 101.5,73.5C 120.09,76.6419 127.923,87.6419 125,106.5C 119.364,121.573 108.53,127.74 92.5,125C 80.8003,121.47 74.4669,113.637 73.5,101.5C 69.5,101.5 65.5,101.5 61.5,101.5C 61.666,106.844 61.4994,112.177 61,117.5C 56.0793,122.042 50.2459,124.542 43.5,125C 32.3756,126.078 21.3756,125.412 10.5,123C 7.24086,121.789 4.40753,119.956 2,117.5C 1.33333,102.167 1.33333,86.8333 2,71.5C 6.6781,65.7004 12.8448,62.5338 20.5,62C 23.4816,61.502 26.4816,61.3354 29.5,61.5C 29.5,57.5 29.5,53.5 29.5,49.5C 12.0351,46.5081 4.86844,36.1747 8,18.5C 11.0191,10.3156 16.5191,4.64896 24.5,1.5 Z M 105.5,5.5 C 110.179,5.33418 114.845,5.50085 119.5,6C 120,6.5 120.5,7 121,7.5C 121.498,10.8168 121.665,14.1501 121.5,17.5C 106.818,17.8326 92.1515,17.4993 77.5,16.5C 77.9767,15.5224 78.6433,14.6891 79.5,14C 86.1667,13.6667 92.8333,13.3333 99.5,13C 101.334,10.3367 103.334,7.83673 105.5,5.5 Z M 30.5,7.5 C 33.1627,9.0886 35.1627,11.4219 36.5,14.5C 33.1667,15.8333 29.8333,15.8333 26.5,14.5C 27.8611,12.1495 29.1944,9.81621 30.5,7.5 Z M 23.5,8.5 C 22.4059,10.6121 21.4059,12.7787 20.5,15C 18.7412,15.7975 17.0745,15.6309 15.5,14.5C 17.3324,11.3276 19.9991,9.3276 23.5,8.5 Z M 39.5,8.5 C 43.1911,9.35347 45.8578,11.5201 47.5,15C 45.8333,15.6667 44.1667,15.6667 42.5,15C 41.5941,12.7787 40.5941,10.6121 39.5,8.5 Z M 12.5,19.5 C 14.8333,19.5 17.1667,19.5 19.5,19.5C 19.5,23.5 19.5,27.5 19.5,31.5C 17.1667,31.5 14.8333,31.5 12.5,31.5C 12.5,27.5 12.5,23.5 12.5,19.5 Z M 24.5,19.5 C 29.1667,19.5 33.8333,19.5 38.5,19.5C 38.5,23.5 38.5,27.5 38.5,31.5C 33.8333,31.5 29.1667,31.5 24.5,31.5C 24.5,27.5 24.5,23.5 24.5,19.5 Z M 43.5,19.5 C 45.8333,19.5 48.1667,19.5 50.5,19.5C 50.5,23.5 50.5,27.5 50.5,31.5C 48.1667,31.5 45.8333,31.5 43.5,31.5C 43.5,27.5 43.5,23.5 43.5,19.5 Z M 77.5,21.5 C 92.1667,21.5 106.833,21.5 121.5,21.5C 121.666,27.5092 121.499,33.5092 121,39.5C 120.5,40 120,40.5 119.5,41C 106.167,41.6667 92.8333,41.6667 79.5,41C 79,40.5 78.5,40 78,39.5C 77.5005,33.5092 77.3338,27.5092 77.5,21.5 Z M 55.5,27.5 C 61.5,27.5 67.5,27.5 73.5,27.5C 73.334,32.8437 73.5006,38.1771 74,43.5C 74.5,44 75,44.5 75.5,45C 82.8258,45.4997 90.1591,45.6663 97.5,45.5C 97.5,54.8333 97.5,64.1667 97.5,73.5C 83.1667,75.1667 75.1667,83.1667 73.5,97.5C 69.5,97.5 65.5,97.5 61.5,97.5C 61.9455,88.0598 61.4455,78.7264 60,69.5C 52.2361,63.525 43.4028,60.8583 33.5,61.5C 33.5,57.5 33.5,53.5 33.5,49.5C 41.2729,49.196 47.4396,45.8627 52,39.5C 54.285,35.8131 55.4517,31.8131 55.5,27.5 Z M 23.5,42.5 C 19.9991,41.6724 17.3324,39.6724 15.5,36.5C 17.0745,35.3691 18.7412,35.2025 20.5,36C 21.4059,38.2213 22.4059,40.3879 23.5,42.5 Z M 26.5,35.5 C 37.1732,33.8285 38.8399,36.4951 31.5,43.5C 29.023,41.3529 27.3563,38.6863 26.5,35.5 Z M 39.5,42.5 C 40.5941,40.3879 41.5941,38.2213 42.5,36C 48.4781,34.6634 49.1447,35.9968 44.5,40C 42.9221,41.0945 41.2554,41.9278 39.5,42.5 Z M 20.5,66.5 C 29.2354,66.1241 37.9021,66.6241 46.5,68C 50.2074,68.9358 53.3741,70.7692 56,73.5C 56.2504,77.9444 54.0837,80.7777 49.5,82C 38.5922,84.9047 27.5922,85.238 16.5,83C 11.7885,82.163 8.45519,79.663 6.5,75.5C 6.8757,73.6171 7.8757,72.1171 9.5,71C 13.1574,69.1776 16.8241,67.6776 20.5,66.5 Z M 21.5,73.5 C 28.175,73.3337 34.8417,73.5004 41.5,74C 42.8333,75 42.8333,76 41.5,77C 34.8333,77.6667 28.1667,77.6667 21.5,77C 20.3157,75.8545 20.3157,74.6879 21.5,73.5 Z M 93.5,78.5 C 106.523,76.4209 115.356,81.4209 120,93.5C 121.037,99.3942 120.371,105.061 118,110.5C 115.778,106.612 112.612,103.779 108.5,102C 111.865,97.1805 112.365,92.0139 110,86.5C 105.86,81.7886 100.694,80.2886 94.5,82C 87.9298,85.6551 85.7632,91.1551 88,98.5C 88.4652,99.9308 89.2986,101.097 90.5,102C 86.3882,103.779 83.2215,106.612 81,110.5C 75.1016,95.6701 79.2682,85.0035 93.5,78.5 Z M 5.5,83.5 C 9.75907,86.2009 14.4257,88.0342 19.5,89C 27.5,89.6667 35.5,89.6667 43.5,89C 48.4416,88.1336 52.9416,86.3002 57,83.5C 58.123,86.9563 57.2896,89.7897 54.5,92C 52.2827,93.2754 49.9494,94.2754 47.5,95C 38.2193,96.5194 28.886,96.8527 19.5,96C 14.2618,95.2971 9.76176,93.1304 6,89.5C 5.50454,87.5273 5.33788,85.5273 5.5,83.5 Z M 96.5,86.5 C 105.85,86.3654 108.517,90.532 104.5,99C 95.9562,102.322 92.1229,99.4891 93,90.5C 93.6897,88.6498 94.8564,87.3164 96.5,86.5 Z M 5.5,96.5 C 9.82908,98.9183 14.4958,100.418 19.5,101C 27.5,101.667 35.5,101.667 43.5,101C 48.3602,100.495 52.8602,98.9954 57,96.5C 58.0405,99.6363 57.2072,102.136 54.5,104C 52.2827,105.275 49.9494,106.275 47.5,107C 38.2193,108.519 28.886,108.853 19.5,108C 14.2618,107.297 9.76176,105.13 6,101.5C 5.50649,99.8659 5.33982,98.1992 5.5,96.5 Z M 97.5,105.5 C 105.232,105.032 110.899,108.198 114.5,115C 104.5,122.333 94.5,122.333 84.5,115C 87.3729,109.6 91.7062,106.433 97.5,105.5 Z M 5.5,108.5 C 9.82908,110.918 14.4958,112.418 19.5,113C 27.5,113.667 35.5,113.667 43.5,113C 48.3602,112.495 52.8602,110.995 57,108.5C 58.0405,111.636 57.2072,114.136 54.5,116C 52.2827,117.275 49.9494,118.275 47.5,119C 38.2193,120.519 28.886,120.853 19.5,120C 14.2618,119.297 9.76176,117.13 6,113.5C 5.50649,111.866 5.33982,110.199 5.5,108.5 Z"/></g>
<g><path style="opacity:1" fill="#fefffe" d="M 105.5,9.5 C 106.833,9.5 108.167,9.5 109.5,9.5C 109.5,10.8333 109.5,12.1667 109.5,13.5C 108.167,13.5 106.833,13.5 105.5,13.5C 105.5,12.1667 105.5,10.8333 105.5,9.5 Z"/></g>
<g><path style="opacity:1" fill="#fefffe" d="M 113.5,9.5 C 114.833,9.5 116.167,9.5 117.5,9.5C 117.5,10.8333 117.5,12.1667 117.5,13.5C 116.167,13.5 114.833,13.5 113.5,13.5C 113.5,12.1667 113.5,10.8333 113.5,9.5 Z"/></g>
<g><path style="opacity:1" fill="#fefffe" d="M 25.5,23.5 C 26.8333,23.5 28.1667,23.5 29.5,23.5C 29.5,24.8333 29.5,26.1667 29.5,27.5C 28.1667,27.5 26.8333,27.5 25.5,27.5C 25.5,26.1667 25.5,24.8333 25.5,23.5 Z"/></g>
<g><path style="opacity:1" fill="#fefffe" d="M 33.5,23.5 C 34.8333,23.5 36.1667,23.5 37.5,23.5C 37.5,24.8333 37.5,26.1667 37.5,27.5C 36.1667,27.5 34.8333,27.5 33.5,27.5C 33.5,26.1667 33.5,24.8333 33.5,23.5 Z"/></g>
<g><path style="opacity:1" fill="#fefffe" d="M 81.5,33.5 C 82.8333,33.5 84.1667,33.5 85.5,33.5C 85.5,34.8333 85.5,36.1667 85.5,37.5C 84.1667,37.5 82.8333,37.5 81.5,37.5C 81.5,36.1667 81.5,34.8333 81.5,33.5 Z"/></g>
<g><path style="opacity:1" fill="#fefffe" d="M 89.5,33.5 C 90.8333,33.5 92.1667,33.5 93.5,33.5C 93.5,34.8333 93.5,36.1667 93.5,37.5C 92.1667,37.5 90.8333,37.5 89.5,37.5C 89.5,36.1667 89.5,34.8333 89.5,33.5 Z"/></g>
<g><path style="opacity:1" fill="#fefffe" d="M 97.5,33.5 C 98.8333,33.5 100.167,33.5 101.5,33.5C 101.5,34.8333 101.5,36.1667 101.5,37.5C 100.167,37.5 98.8333,37.5 97.5,37.5C 97.5,36.1667 97.5,34.8333 97.5,33.5 Z"/></g>
<g><path style="opacity:0.902" fill="#fefffe" d="M 17.5,69.5 C 26.8393,69.3335 36.1726,69.5002 45.5,70C 48.1667,73.6667 48.1667,77.3333 45.5,81C 36.1667,81.6667 26.8333,81.6667 17.5,81C 14.8747,77.1681 14.8747,73.3348 17.5,69.5 Z M 21.5,73.5 C 20.3157,74.6879 20.3157,75.8545 21.5,77C 28.1667,77.6667 34.8333,77.6667 41.5,77C 42.8333,76 42.8333,75 41.5,74C 34.8417,73.5004 28.175,73.3337 21.5,73.5 Z"/></g>
</svg>
